#tb 0: 1/25
0,          0,          0,        1,    38016, 0x3ae838ee
0,          1,          1,        1,    38016, 0x9ed7e141
0,          2,          2,        1,    38016, 0x393097f9
0,          3,          3,        1,    38016, 0x8fb56676
0,          4,          4,        1,    38016, 0x39d64fd2
0,          5,          5,        1,    38016, 0x7fad729a
0,          6,          6,        1,    38016, 0x7e25955f
0,          7,          7,        1,    38016, 0xc4d9a359
0,          8,          8,        1,    38016, 0x30afaca4
0,          9,          9,        1,    38016, 0x9ee195ea
0,         10,         10,        1,    38016, 0x09f65805
0,         11,         11,        1,    38016, 0x58d126ab
0,         12,         12,        1,    38016, 0x4f29282c
0,         13,         13,        1,    38016, 0x8af235a1
0,         14,         14,        1,    38016, 0x6dfe525a
0,         15,         15,        1,    38016, 0xd51c793f
0,         16,         16,        1,    38016, 0x4e90abba
0,         17,         17,        1,    38016, 0xe706c5b7
0,         18,         18,        1,    38016, 0x35fab7ef
0,         19,         19,        1,    38016, 0xed78b8fc
0,         20,         20,        1,    38016, 0x2907bb4e
0,         21,         21,        1,    38016, 0x1749bb47
0,         22,         22,        1,    38016, 0x284ec688
0,         23,         23,        1,    38016, 0x534abc24
0,         24,         24,        1,    38016, 0xcd01bd13
0,         25,         25,        1,    38016, 0xe97bbd51
0,         26,         26,        1,    38016, 0xac1cb9e9
0,         27,         27,        1,    38016, 0xd861c0a3
0,         28,         28,        1,    38016, 0xf0f1ced4
0,         29,         29,        1,    38016, 0xa9e8d2bf
0,         30,         30,        1,    38016, 0x4c6aa7c5
0,         31,         31,        1,    38016, 0xe2eb6bde
0,         32,         32,        1,    38016, 0x92eb44a1
0,         33,         33,        1,    38016, 0x376b8919
0,         34,         34,        1,    38016, 0x291bfdd9
0,         35,         35,        1,    38016, 0xed0c60a0
0,         36,         36,        1,    38016, 0xf505b70d
0,         37,         37,        1,    38016, 0x26b33a9b
0,         38,         38,        1,    38016, 0xc9269664
0,         39,         39,        1,    38016, 0xe21dc61e
0,         40,         40,        1,    38016, 0xe88fe653
0,         41,         41,        1,    38016, 0xd4cff39c
0,         42,         42,        1,    38016, 0x02bdecdf
0,         43,         43,        1,    38016, 0xec48fc13
0,         44,         44,        1,    38016, 0x363f071c
0,         45,         45,        1,    38016, 0x7fcbf2fd
0,         46,         46,        1,    38016, 0xc3d1c265
0,         47,         47,        1,    38016, 0x818a94e9
0,         48,         48,        1,    38016, 0x30b5a52f
0,         49,         49,        1,    38016, 0x7a1acd17
0,         50,         50,        1,    38016, 0xb5a6dc91
0,         51,         51,        1,    38016, 0x7d39b673
0,         52,         52,        1,    38016, 0x341ad3f9
0,         53,         53,        1,    38016, 0x264cff5f
0,         54,         54,        1,    38016, 0x613a445b
0,         55,         55,        1,    38016, 0x42a55cd6
0,         56,         56,        1,    38016, 0xe84f6a39
0,         57,         57,        1,    38016, 0xd8e93151
0,         58,         58,        1,    38016, 0xc7333ac4
0,         59,         59,        1,    38016, 0xa08a4b2c
0,         60,         60,        1,    38016, 0xeb8a3531
0,         61,         61,        1,    38016, 0x88bf1883
0,         62,         62,        1,    38016, 0x0043c104
0,         63,         63,        1,    38016, 0xa9d6a35d
0,         64,         64,        1,    38016, 0x01dec5af
0,         65,         65,        1,    38016, 0x673cdf0e
0,         66,         66,        1,    38016, 0xc8d0ce67
0,         67,         67,        1,    38016, 0xcac2d0bd
0,         68,         68,        1,    38016, 0x8575c7b9
0,         69,         69,        1,    38016, 0x71c1b4f4
0,         70,         70,        1,    38016, 0x2affa1d4
0,         71,         71,        1,    38016, 0xae947cfd
0,         72,         72,        1,    38016, 0x48b2821d
0,         73,         73,        1,    38016, 0x1c5d77f4
0,         74,         74,        1,    38016, 0x3625233b
0,         75,         75,        1,    38016, 0xcfc8e3ff
0,         76,         76,        1,    38016, 0x6d04cfa5
0,         77,         77,        1,    38016, 0x2c4ec463
0,         78,         78,        1,    38016, 0x72b1ea07
0,         79,         79,        1,    38016, 0x448d3996
0,         80,         80,        1,    38016, 0x89256b87
0,         81,         81,        1,    38016, 0x69af5fea
0,         82,         82,        1,    38016, 0x908f46b0
0,         83,         83,        1,    38016, 0x56e11a8b
0,         84,         84,        1,    38016, 0x7fd4c5f5
0,         85,         85,        1,    38016, 0x560bd701
0,         86,         86,        1,    38016, 0x71570820
0,         87,         87,        1,    38016, 0x11b20b14
0,         88,         88,        1,    38016, 0xa3fd9f19
0,         89,         89,        1,    38016, 0x4a564d33
0,         90,         90,        1,    38016, 0x1722db32
0,         91,         91,        1,    38016, 0xf853a971
0,         92,         92,        1,    38016, 0xb136bf89
0,         93,         93,        1,    38016, 0xb686e8c3
0,         94,         94,        1,    38016, 0x8afc1a4c
0,         95,         95,        1,    38016, 0xa24adb65
0,         96,         96,        1,    38016, 0xd951ae27
0,         97,         97,        1,    38016, 0xa731f04e
0,         98,         98,        1,    38016, 0xabd65795
0,         99,         99,        1,    38016, 0x46bc95e1
